<svg xmlns="http://www.w3.org/2000/svg" width="27" height="27" fill="none" viewBox="0 0 27 27">
  <path fill="#0036C3" stroke="#0036C3" stroke-width=".5" d="M19.024 7.542a.817.817 0 0 0-.814.814v4.913h-4.1V8.383a.817.817 0 0 0-.814-.814.817.817 0 0 0-.814.814v4.913H8.79V8.383a.817.817 0 0 0-.814-.814.835.835 0 0 0-.814.814v10.26c0 .462.38.815.814.815.434 0 .814-.38.814-.814v-3.719h3.692v3.692c0 .461.38.814.814.814.462 0 .815-.38.815-.814v-3.692h4.913c.461 0 .814-.38.814-.814V8.383c0-.461-.353-.841-.814-.841ZM13.486 1C6.592 1 1 6.592 1 13.486 1 20.381 6.592 26 13.514 26 20.435 26 26 20.408 26 13.486 26 6.592 20.408 1 13.486 1Zm0 23.371c-5.998 0-10.857-4.886-10.857-10.857 0-6 4.886-10.858 10.857-10.858 5.972 0 10.858 4.886 10.858 10.858.027 5.971-4.859 10.857-10.858 10.857Z"/>
</svg>
