<svg xmlns="http://www.w3.org/2000/svg" width="10" height="32" fill="none" viewBox="0 0 10 32">
  <path fill="#0036C3" d="M8.164 7.984H1.672C.75 7.984 0 8.734 0 9.656v20.25c0 .92.75 1.672 1.672 1.672h6.492c.92 0 1.672-.747 1.672-1.672V9.655c0-.922-.747-1.672-1.672-1.672ZM7.83 9.99v8.43H5.944v-7.64H3.937v7.64h-1.93V9.99H7.83ZM2.006 29.571v-9.664H7.83v9.664H2.006Zm1.93-25.498.002 3.081h2.006l-.001-3.08c.687-.367 1.17-1.067 1.17-1.898A2.176 2.176 0 0 0 4.94 0c-1.2 0-2.172.977-2.176 2.176.002.831.485 1.531 1.172 1.897Z"/>
</svg>
