<svg xmlns="http://www.w3.org/2000/svg" width="26" height="27" fill="none" viewBox="0 0 26 27">
  <path fill="#0036C3" d="M13.15 3.674H4.68c-.454 0-.888.17-1.208.473-.32.303-.5.714-.5 1.142v6.234a.94.94 0 0 0 .3.685c.192.182.452.284.724.284h9.837c.271 0 .532-.102.724-.284a.943.943 0 0 0 .3-.685V5.289c0-.428-.18-.84-.5-1.142a1.759 1.759 0 0 0-1.208-.473Zm-.342 6.88H5.02V5.612h7.787v4.942Z"/>
  <path fill="#0036C3" d="m20.426 0-1.3 1.42 4.924 4.16v13.155a1.206 1.206 0 0 1-.39.824 1.283 1.283 0 0 1-.87.336 1.28 1.28 0 0 1-.868-.336 1.206 1.206 0 0 1-.39-.824V9.876a2.79 2.79 0 0 0-.858-2.004 2.973 2.973 0 0 0-2.068-.83h-.731V4.626c0-1.169-.48-2.29-1.333-3.117A4.625 4.625 0 0 0 13.325.217H4.55A4.625 4.625 0 0 0 1.333 1.51 4.34 4.34 0 0 0 0 4.626V25.51c0 .25.103.491.286.668a.99.99 0 0 0 .689.277H16.9a.99.99 0 0 0 .69-.277.93.93 0 0 0 .285-.668V8.931h.731c.259 0 .507.1.69.277a.93.93 0 0 1 .285.668v8.86a3.07 3.07 0 0 0 .976 2.135c.599.562 1.4.877 2.234.877.834 0 1.635-.315 2.234-.877A3.068 3.068 0 0 0 26 18.735V5.152a.919.919 0 0 0-.083-.39.947.947 0 0 0-.242-.321L20.426 0Zm-4.501 24.564H1.95V4.627c0-.668.274-1.309.762-1.781a2.643 2.643 0 0 1 1.838-.738h8.775c.69 0 1.35.265 1.839.738a2.48 2.48 0 0 1 .761 1.781v19.938Z"/>
</svg>
