<svg xmlns="http://www.w3.org/2000/svg" width="153" height="29" fill="none" viewBox="0 0 153 29">
  <path fill="#00F3B9" d="M15.908 9.65C20.081 3.911 26.08 1.13 28.688.26 8.24 3.809 1.216 20.517.26 28.427c7.824-9.388 19.82-15.647 24.775-16.43-3.13-1.825-5.737-2.086-9.128-2.347Z"/>
  <path fill="#0036C3" d="M28.687 0C16.756 1.123 7.217 5.915 3.94 8.17h4.014C1.547 18.826.552 25.449 0 28.688 8.617 15.73 20.438 12.634 22.317 11.662c-2.497-.709-7.973-1.23-11.885 1.378C12.779 8.606 25.483 1.188 28.687 0Z"/>
  <path fill="#000" d="M61.774 22.95H39.78V1.53h21.994v3.063H42.82v15.295h18.954v3.062Zm-2.58-9.171H44.333v-3.062h14.86v3.062Zm63.276-9.186h-18.984V22.95h-3.04V1.53h22.024v3.063Zm-2.61 9.186h-14.861v-3.062h14.861v3.062Z"/>
  <path fill="#000" fill-opacity=".87" d="M131.388 1.53h-3.633l9.945 12.431 1.73-2.151-8.042-10.28Zm7.258 21.516v-7.65L149.218 1.53h3.781l-10.892 13.866v7.65h-3.461Z"/>
  <path fill="#000" fill-rule="evenodd" d="M82.186 22.95 93.368 1.53h-3.47l-9.314 17.862-1.463 3.558h3.065Zm-4.169-1.338L67.547 1.53h3.456l8.538 16.375-1.524 3.707Z" clip-rule="evenodd"/>
</svg>
