<svg xmlns="http://www.w3.org/2000/svg" width="28" height="29" fill="none" viewBox="0 0 28 29">
  <g clip-path="url(#a)">
    <path fill="#0036C3" d="m23.777 10.631-1.435 2.159a9.333 9.333 0 0 1-.257 8.843H5.915A9.333 9.333 0 0 1 18.177 8.624l2.158-1.435A11.667 11.667 0 0 0 3.908 22.8a2.334 2.334 0 0 0 2.007 1.167h16.158a2.333 2.333 0 0 0 2.03-1.167 11.666 11.666 0 0 0-.315-12.18l-.011.012Zm-11.422 7.98a2.332 2.332 0 0 0 3.302 0l6.603-9.905-9.905 6.604a2.335 2.335 0 0 0 0 3.301Z"/>
  </g>
  <defs>
    <clipPath id="a">
      <path fill="#fff" d="M0 .633h28v28H0z"/>
    </clipPath>
  </defs>
</svg>
